<svg enable-background="new 0 0 32 32" height="32" viewBox="0 0 32 32" width="32" xmlns="http://www.w3.org/2000/svg"><g fill="#1c1c1c"><path d="m16 12c-3.314 0-6 2.686-6 6s2.686 6 6 6 6-2.686 6-6-2.686-6-6-6zm0 11c-2.761 0-5-2.239-5-5s2.239-5 5-5 5 2.239 5 5-2.239 5-5 5z"/><path d="m28 9c-1.105 0-2 .895-2 2s.895 2 2 2 2-.895 2-2-.895-2-2-2zm0 3c-.552 0-1-.448-1-1s.448-1 1-1 1 .448 1 1-.448 1-1 1z"/><path d="m16 9c-4.971 0-9 4.029-9 9s4.029 9 9 9 9-4.029 9-9-4.029-9-9-9zm0 17c-4.418 0-8-3.582-8-8s3.582-8 8-8 8 3.582 8 8-3.582 8-8 8z"/><path d="m30 7h-7v-2c0-1.105-.895-2-2-2h-10c-1.105 0-2 .895-2 2v2h-7c-1.105 0-2 .895-2 2v18c0 1.105.895 2 2 2h28c1.105 0 2-.895 2-2v-18c0-1.105-.895-2-2-2zm1 19c0 1.105-.895 2-2 2h-26c-1.105 0-2-.895-2-2v-16c0-1.105.895-2 2-2h7v-1-1c0-1.105.895-2 2-2h8c1.105 0 2 .895 2 2v1 1h7c1.105 0 2 .895 2 2z"/></g></svg>